# Blender v3.0.1 OBJ File: ''
# www.blender.org
mtllib cursor.mtl
o Cube.001
v 1.000000 0.000000 0.000000
v -1.000000 0.000000 -1.000000
v -1.000000 -0.000000 1.000000
v 1.000000 0.000000 0.000000
v 1.000000 0.000000 0.000000
v -1.000000 -0.000000 1.000000
v -1.000000 0.000000 -0.322169
v -1.000000 0.000000 -0.322169
v -2.050450 0.000000 -0.322169
v -2.050450 0.000000 -0.322169
v 1.000000 0.000000 0.000000
v 1.000000 0.000000 0.000000
v 1.000000 0.000000 0.000000
v -1.000000 0.000000 -1.000000
v -1.000000 -0.000000 0.322169
v -1.000000 -0.000000 0.322169
v -2.050450 -0.000000 0.322169
v -2.050450 -0.000000 0.322169
v 1.000000 0.308351 0.000000
v 1.000000 0.308351 0.000000
v -1.000000 0.000000 -1.000000
v -1.000000 -0.000000 1.000000
v -1.000000 0.308351 -0.322169
v -2.050450 0.308351 -0.322169
v -1.000000 -0.000000 0.322169
v -1.000000 0.000000 -0.322169
v -2.050450 0.000000 -0.322169
v -2.050450 -0.000000 0.322169
v -1.000000 0.308351 0.322169
v -2.050450 0.308351 0.322169
v -1.000000 0.308351 -1.000000
v -1.000000 0.308351 1.000000
v 1.000000 -0.308351 -0.000000
v 1.000000 -0.308351 -0.000000
v -2.050450 -0.308351 -0.322169
v -1.000000 -0.308351 -0.322169
v -2.050450 -0.308351 0.322169
v -1.000000 -0.308351 0.322169
v -1.000000 -0.308351 -1.000000
v -1.000000 -0.308351 1.000000
vt 0.625000 0.750000
vt 0.875000 0.500000
vt 0.875000 0.750000
vt 0.625000 0.750000
vt 0.375000 0.750000
vt 0.625000 1.000000
vt 0.375000 1.000000
vt 0.540271 0.165271
vt 0.459729 0.165271
vt 0.459729 0.165271
vt 0.540271 0.165271
vt 0.375000 0.500000
vt 0.375000 0.750000
vt 0.375000 0.500000
vt 0.625000 0.500000
vt 0.375000 0.250000
vt 0.625000 0.250000
vt 0.000000 0.000000
vt 0.000000 0.000000
vt 0.540271 0.084729
vt 0.459729 0.084729
vt 0.000000 0.000000
vt 0.000000 0.000000
vt 0.459729 0.084729
vt 0.540271 0.084729
vt 0.375000 0.500000
vt 0.375000 0.750000
vt 0.375000 0.000000
vt 0.375000 0.250000
vt 0.375000 0.000000
vt 0.625000 0.000000
vt 0.459729 0.165271
vt 0.459729 0.165271
vt 0.540271 0.084729
vt 0.540271 0.165271
vt 0.540271 0.165271
vt 0.540271 0.084729
vt 0.375000 1.000000
vt 0.459729 0.084729
vt 0.459729 0.084729
vt 0.125000 0.500000
vt 0.125000 0.750000
vt 0.375000 0.500000
vt 0.375000 0.250000
vt 0.375000 1.000000
vt 0.375000 0.000000
vt 0.375000 0.750000
vt 0.375000 0.500000
vt 0.459729 0.165271
vt 0.459729 0.165271
vt 0.459729 0.084729
vt 0.459729 0.084729
vt 0.125000 0.500000
vt 0.375000 0.500000
vt 0.125000 0.750000
vt 0.375000 0.250000
vt 0.375000 1.000000
vt 0.375000 0.000000
vn 0.0001 1.0000 0.0000
vn -0.0001 1.0000 0.0000
vn -0.0000 1.0000 -0.0000
vn 0.0000 0.2000 0.4000
vn 0.0000 0.0000 -0.0001
vn 0.0000 0.0000 -0.0000
vn -0.0000 1.0000 -0.0001
vn 0.0000 0.0000 0.0001
vn -1.0000 -0.0000 0.0000
vn 1.0000 0.0000 -0.0000
vn 0.0000 0.0000 -1.0000
vn 0.4472 0.0000 -0.8944
vn 0.4472 -0.0000 0.8944
vn 0.0000 0.0000 1.0000
vn -0.8517 -0.0903 0.5162
vn -0.8296 -0.5433 0.1285
vn 0.0000 -1.0000 0.0000
usemtl Material.001
s 1
f 1/1/1 2/2/2 3/3/3 4/4/4
f 5/5/5 4/4/4 3/6/3 6/7/3
f 7/8/6 8/9/6 9/10/6 10/11/7
f 11/12/6 5/5/5 12/13/5 13/14/3
f 11/12/6 1/15/1 4/4/4 5/5/5
f 14/16/8 2/17/2 1/15/1 11/12/6
f 8/9/6 7/8/6 2/18/2 14/19/8
f 15/20/6 16/21/6 6/22/3 3/23/3
f 17/24/6 18/25/6 10/11/7 9/10/6
f 13/14/9 20/26/6 19/27/10 12/13/6
f 6/28/3 14/16/8 21/29/6 22/30/6
f 16/21/6 15/20/6 18/25/6 17/24/6
f 7/8/6 15/20/6 3/31/3 2/17/2
f 16/21/6 8/9/6 14/16/8 6/28/3
f 9/10/11 24/32/11 23/33/11 8/9/11
f 25/34/3 26/35/3 27/36/2 28/37/3
f 18/25/6 15/20/6 25/34/3 28/37/3
f 7/8/6 10/11/7 27/36/2 26/35/3
f 10/11/7 18/25/6 28/37/3 27/36/2
f 14/16/8 11/12/6 13/14/3 21/29/6
f 5/5/5 6/7/3 22/38/6 12/13/5
f 15/20/6 7/8/6 26/35/3 25/34/3
f 23/33/3 24/32/3 30/39/3 29/40/3
f 31/41/3 32/42/3 19/43/3 20/26/3
f 17/24/9 30/39/9 24/32/9 9/10/9
f 21/29/12 31/44/12 20/26/12 13/14/12
f 8/9/10 23/33/10 29/40/10 16/21/10
f 12/13/13 19/27/13 32/45/13 22/38/13
f 22/30/9 32/46/9 31/44/9 21/29/9
f 16/21/14 29/40/14 30/39/14 17/24/14
f 13/14/6 12/13/10 34/47/15 33/48/16
f 9/10/11 8/9/11 36/49/11 35/50/11
f 36/49/17 38/51/17 37/52/17 35/50/17
f 39/53/17 33/48/16 34/54/15 40/55/17
f 17/24/9 9/10/9 35/50/9 37/52/9
f 21/29/12 13/14/12 33/48/12 39/56/12
f 8/9/10 16/21/10 38/51/10 36/49/10
f 12/13/13 22/38/13 40/57/13 34/47/13
f 22/30/9 21/29/9 39/56/9 40/58/9
f 16/21/14 17/24/14 37/52/14 38/51/14
